<svg id="visual" viewBox="0 0 2560 1600" width="2560" height="1600" xmlns="http://www.w3.org/2000/svg" xmlns:xlink="http://www.w3.org/1999/xlink" version="1.1"><rect x="0" y="0" width="2560" height="1600" fill="#ffffff"></rect><defs><linearGradient id="grad1_0" x1="37.5%" y1="100%" x2="100%" y2="0%"><stop offset="17.999999999999996%" stop-color="#ffffff" stop-opacity="1"></stop><stop offset="82%" stop-color="#ffffff" stop-opacity="1"></stop></linearGradient></defs><defs><linearGradient id="grad2_0" x1="0%" y1="100%" x2="62.5%" y2="0%"><stop offset="17.999999999999996%" stop-color="#ffffff" stop-opacity="1"></stop><stop offset="82%" stop-color="#ffffff" stop-opacity="1"></stop></linearGradient></defs><g transform="translate(2560, 1600)"><path d="M-377.4 0C-376.6 -81.8 -375.8 -163.5 -326.8 -188.7C-277.8 -213.8 -180.5 -182.4 -118 -204.4C-55.5 -226.4 -27.7 -301.9 0 -377.4L0 0Z" fill="#861616"></path></g><g transform="translate(0, 0)"><path d="M377.4 0C316.7 36.3 256 72.6 232.1 134C208.2 195.4 221.2 282 188.7 326.8C156.1 371.6 78.1 374.5 0 377.4L0 0Z" fill="#861616"></path></g></svg>