<svg xmlns="http://www.w3.org/2000/svg" viewBox="0 0 600 600"><defs><style>.cls-1{fill:#3a80c3;}.cls-2{fill:#0086e8;}.cls-3{fill:#98d2f2;}</style></defs><g id="Layer_2" data-name="Layer 2"><path class="cls-1" d="M249.32,357.92v-8.61h2.86a5.21,5.21,0,0,1,1.73.26,2.33,2.33,0,0,1,1.14.85,2.46,2.46,0,0,1,.42,1.47,3.33,3.33,0,0,1-.16,1.09,2.22,2.22,0,0,1-1.54,1.47,5.28,5.28,0,0,1-1.59.21c-.53,0-1,0-1.3-.05v3.31Zm2.69-4.41a3.49,3.49,0,0,0,.84-.09,2.22,2.22,0,0,0,.57-.24,1.14,1.14,0,0,0,.32-.37,1.45,1.45,0,0,0,.16-.42,2.89,2.89,0,0,0,0-.45,1.33,1.33,0,0,0-.46-1.08,2.06,2.06,0,0,0-1.29-.37h-1.31v3Z"/><path class="cls-1" d="M271.29,358a4,4,0,0,1-3.06-1.17,4.52,4.52,0,0,1-1.12-3.25,4.46,4.46,0,0,1,1.12-3.24,4.6,4.6,0,0,1,6.13,0,4.53,4.53,0,0,1,1.12,3.25,4.47,4.47,0,0,1-1.13,3.23A4,4,0,0,1,271.29,358Zm-1.88-2.11a2.28,2.28,0,0,0,1.89.82,2.22,2.22,0,0,0,1.88-.82,3.65,3.65,0,0,0,.64-2.29,3.78,3.78,0,0,0-.64-2.33,2.57,2.57,0,0,0-3.77,0,3.74,3.74,0,0,0-.64,2.32A3.61,3.61,0,0,0,269.41,355.93Z"/><path class="cls-1" d="M287.74,357.92v-8.61h3.18a9.29,9.29,0,0,1,1.13.06,4.47,4.47,0,0,1,.91.21,2,2,0,0,1,.69.42,2,2,0,0,1,.43.69,3,3,0,0,1,.15,1,2.15,2.15,0,0,1-1.55,2.25,6.31,6.31,0,0,1,.78,1.33l1.28,2.65H293l-1-2.25c-.38-.8-.62-1.28-.71-1.43h-2v3.69Zm3.32-4.83a2,2,0,0,0,1.31-.33,1.24,1.24,0,0,0,.4-1,1.08,1.08,0,0,0-.4-.93,2.08,2.08,0,0,0-1.24-.3h-1.82v2.59h1.75Z"/><path class="cls-1" d="M308.41,357.92V350.6h-2.5v-1.27h6.58v1.27H310v7.32Z"/><path class="cls-1" d="M323.36,357.92l3.15-8.59h1.73l3.11,8.59h-1.62l-.85-2.43h-3l-.86,2.43Zm2.91-3.61h2.2l-1.08-3.49Z"/><path class="cls-1" d="M343.06,357.92v-8.59h1.59v7.32h3.59l-.05,1.27Z"/><path class="cls-2" d="M298.77,318.52c-34,0-70.18-10.25-70.18-29.25S264.75,260,298.77,260,369,270.27,369,289.27,332.79,318.52,298.77,318.52Zm0-48.5c-36.74,0-60.18,11.4-60.18,19.25s23.44,19.25,60.18,19.25S359,297.12,359,289.27,335.5,270,298.77,270Z"/><path class="cls-3" d="M342.63,298.16c5.63-2.17,9.07-4.42,10.94-6.17-13.69-6.9-34.62-10.51-54.8-10.51S257.65,285.09,244,292c1.88,1.75,5.32,4,10.94,6.17,10.45-3.83,25.5-6.68,43.87-6.68S332.18,294.33,342.63,298.16Z"/><path class="cls-3" d="M358.65,309.16a4.73,4.73,0,0,1,.3,1.57c0,7.85-23.45,19.25-60.18,19.25s-60.18-11.4-60.18-19.25a4.49,4.49,0,0,1,.3-1.57,37,37,0,0,1-8-6.32,15,15,0,0,0-2.29,7.89c0,19,36.16,29.25,70.18,29.25S369,329.73,369,310.73a15,15,0,0,0-2.3-7.89A37.16,37.16,0,0,1,358.65,309.16Z"/></g></svg>