<svg xmlns="http://www.w3.org/2000/svg" viewBox="0 0 600 600"><defs><style>.cls-1{fill:#98d2f2;}.cls-2{fill:#0086e8;}.cls-3{fill:#3a80c3;}</style></defs><g id="Layer_2" data-name="Layer 2"><path class="cls-1" d="M342.63,298.16c5.63-2.17,9.07-4.42,10.94-6.17-13.69-6.9-34.62-10.51-54.8-10.51S257.65,285.09,244,292c1.88,1.75,5.32,4,10.94,6.17,10.45-3.83,25.5-6.68,43.87-6.68S332.18,294.33,342.63,298.16Z"/><path class="cls-1" d="M358.65,309.16a4.73,4.73,0,0,1,.3,1.57c0,7.85-23.45,19.25-60.18,19.25s-60.18-11.4-60.18-19.25a4.49,4.49,0,0,1,.3-1.57,37,37,0,0,1-8-6.32,15,15,0,0,0-2.29,7.89c0,19,36.16,29.25,70.18,29.25S369,329.73,369,310.73a15,15,0,0,0-2.3-7.89A37.16,37.16,0,0,1,358.65,309.16Z"/><path class="cls-2" d="M298.77,318.52c-34,0-70.18-10.25-70.18-29.25S264.75,260,298.77,260,369,270.27,369,289.27,332.79,318.52,298.77,318.52Zm0-48.5c-36.74,0-60.18,11.4-60.18,19.25s23.44,19.25,60.18,19.25S359,297.12,359,289.27,335.5,270,298.77,270Z"/><path class="cls-3" d="M249.3,357.92v-8.61h2.86a5.23,5.23,0,0,1,1.74.26,2.33,2.33,0,0,1,1.14.85,2.46,2.46,0,0,1,.42,1.47,3.62,3.62,0,0,1-.16,1.09,2.43,2.43,0,0,1-.52.87,2.34,2.34,0,0,1-1,.6,5.19,5.19,0,0,1-1.59.21c-.53,0-1,0-1.29-.05v3.31Zm2.69-4.41a3.52,3.52,0,0,0,.85-.09,2,2,0,0,0,.56-.24,1.06,1.06,0,0,0,.33-.37,1.18,1.18,0,0,0,.15-.42,2,2,0,0,0,0-.45,1.3,1.3,0,0,0-.46-1.08,2,2,0,0,0-1.28-.37h-1.31v3Z"/><path class="cls-3" d="M271.28,358a4,4,0,0,1-3.06-1.17,4.53,4.53,0,0,1-1.13-3.25,4.47,4.47,0,0,1,1.13-3.24,4.59,4.59,0,0,1,6.12,0,5.25,5.25,0,0,1,0,6.48A4,4,0,0,1,271.28,358Zm-1.88-2.11a2.58,2.58,0,0,0,3.77,0,3.65,3.65,0,0,0,.63-2.29,3.78,3.78,0,0,0-.63-2.33,2.57,2.57,0,0,0-3.77,0,3.68,3.68,0,0,0-.64,2.32A3.61,3.61,0,0,0,269.4,355.93Z"/><path class="cls-3" d="M287.73,357.92v-8.61h3.18a9.29,9.29,0,0,1,1.13.06,4.37,4.37,0,0,1,.9.21,2.07,2.07,0,0,1,.7.42,1.83,1.83,0,0,1,.42.69,2.76,2.76,0,0,1,.16,1,2.15,2.15,0,0,1-1.55,2.25,6.31,6.31,0,0,1,.78,1.33l1.28,2.65H293l-1-2.25c-.38-.8-.61-1.28-.7-1.43h-2v3.69Zm3.32-4.83a2,2,0,0,0,1.31-.33,1.24,1.24,0,0,0,.4-1,1.1,1.1,0,0,0-.4-.93,2.1,2.1,0,0,0-1.24-.3H289.3v2.59h1.75Z"/><path class="cls-3" d="M308.39,357.92V350.6h-2.5v-1.27h6.59v1.27H310v7.32Z"/><path class="cls-3" d="M323.34,357.92l3.16-8.59h1.73l3.11,8.59h-1.63l-.85-2.43h-3l-.86,2.43Zm2.91-3.61h2.21c-.71-2.26-1.07-3.42-1.09-3.49Z"/><path class="cls-3" d="M343.05,357.92v-8.59h1.59v7.32h3.59l-.05,1.27Z"/></g></svg>