<svg xmlns="http://www.w3.org/2000/svg" viewBox="0 0 140.36 97.9"><defs><style>.cls-1{fill:#3a80c3;}.cls-2{fill:#0086e8;}.cls-3{fill:#98d2f2;}</style></defs><g id="Layer_2" data-name="Layer 2"><path class="cls-1" d="M20.73,97.9V89.29h2.86a5.17,5.17,0,0,1,1.73.26,2.39,2.39,0,0,1,1.14.85,2.46,2.46,0,0,1,.42,1.47A3.29,3.29,0,0,1,26.72,93a2.18,2.18,0,0,1-.52.87,2.31,2.31,0,0,1-1,.6,5.28,5.28,0,0,1-1.59.21c-.53,0-1,0-1.3,0v3.3Zm2.69-4.4a3.54,3.54,0,0,0,.85-.1,1.62,1.62,0,0,0,.56-.24,1.22,1.22,0,0,0,.32-.36,1.7,1.7,0,0,0,.16-.42,3.15,3.15,0,0,0,0-.46,1.27,1.27,0,0,0-.46-1.07,2,2,0,0,0-1.29-.37H22.29v3C22.34,93.49,22.72,93.5,23.42,93.5Z"/><path class="cls-1" d="M42.7,98a4,4,0,0,1-3.06-1.17,5.24,5.24,0,0,1,0-6.49,4.59,4.59,0,0,1,6.12,0,5.24,5.24,0,0,1,0,6.49A4,4,0,0,1,42.7,98Zm-1.88-2.11a2.59,2.59,0,0,0,3.77,0,3.62,3.62,0,0,0,.64-2.3,3.68,3.68,0,0,0-.64-2.32,2.54,2.54,0,0,0-3.76,0,3.7,3.7,0,0,0-.65,2.32A3.65,3.65,0,0,0,40.82,95.91Z"/><path class="cls-1" d="M59.15,97.9V89.29h3.18a9.17,9.17,0,0,1,1.13.06,3.9,3.9,0,0,1,.91.22,1.79,1.79,0,0,1,.7.42,1.71,1.71,0,0,1,.42.68,3.07,3.07,0,0,1,.15,1,2.16,2.16,0,0,1-1.55,2.25,6.86,6.86,0,0,1,.79,1.32l1.27,2.65H64.42l-1-2.24c-.38-.81-.62-1.28-.71-1.43h-2V97.9Zm3.32-4.83a2.17,2.17,0,0,0,1.32-.32,1.31,1.31,0,0,0,.4-1,1.08,1.08,0,0,0-.41-.93,2.08,2.08,0,0,0-1.24-.3H60.72v2.6h1.75Z"/><path class="cls-1" d="M79.82,97.9V90.59h-2.5V89.32H83.9v1.27H81.41V97.9Z"/><path class="cls-1" d="M94.77,97.9l3.16-8.59h1.73l3.11,8.59h-1.63l-.85-2.42h-3l-.85,2.42Zm2.91-3.61h2.2c-.7-2.25-1.06-3.42-1.08-3.49Z"/><path class="cls-1" d="M114.47,97.9V89.32h1.59v7.32h3.59l0,1.26Z"/><path class="cls-2" d="M70.18,58.51C36.16,58.51,0,48.25,0,29.25S36.16,0,70.18,0s70.18,10.25,70.18,29.25S104.2,58.51,70.18,58.51Zm0-48.51C33.44,10,10,21.4,10,29.25S33.44,48.51,70.18,48.51s60.18-11.41,60.18-19.26S106.91,10,70.18,10Z"/><path class="cls-3" d="M114.05,38.15C119.67,36,123.11,33.72,125,32c-13.69-6.9-34.62-10.51-54.8-10.51S29.07,25.07,15.37,32c1.88,1.75,5.32,4,10.94,6.18,10.45-3.84,25.5-6.69,43.87-6.69S103.59,34.31,114.05,38.15Z"/><path class="cls-3" d="M130.06,49.15a4.69,4.69,0,0,1,.3,1.57c0,7.85-23.45,19.25-60.18,19.25S10,58.57,10,50.72a4.45,4.45,0,0,1,.3-1.57,37.26,37.26,0,0,1-8-6.33A15.12,15.12,0,0,0,0,50.72C0,69.72,36.16,80,70.18,80s70.18-10.25,70.18-29.25a15,15,0,0,0-2.3-7.9A37.19,37.19,0,0,1,130.06,49.15Z"/></g></svg>