<svg xmlns="http://www.w3.org/2000/svg" viewBox="0 0 140.36 97.9"><defs><style>.cls-1{fill:#fff;}.cls-2{fill:#959595;}</style></defs><g id="Layer_2" data-name="Layer 2"><path class="cls-1" d="M20.72,97.9V89.29h2.86a5.21,5.21,0,0,1,1.73.26,2.39,2.39,0,0,1,1.14.85,2.46,2.46,0,0,1,.42,1.47A3.29,3.29,0,0,1,26.71,93a2.22,2.22,0,0,1-1.54,1.47,5.28,5.28,0,0,1-1.59.21c-.53,0-1,0-1.3,0v3.3Zm2.69-4.4a3.45,3.45,0,0,0,.84-.1,1.68,1.68,0,0,0,.57-.24,1.22,1.22,0,0,0,.32-.36,1.7,1.7,0,0,0,.16-.42,3.23,3.23,0,0,0,0-.46,1.29,1.29,0,0,0-.45-1.07,2,2,0,0,0-1.29-.37H22.28v3S22.7,93.5,23.41,93.5Z"/><path class="cls-1" d="M42.69,98a4,4,0,0,1-3.06-1.17,5.26,5.26,0,0,1,0-6.49,4.6,4.6,0,0,1,6.13,0,5.28,5.28,0,0,1,0,6.49A4,4,0,0,1,42.69,98Zm-1.88-2.11a2.59,2.59,0,0,0,3.77,0,3.68,3.68,0,0,0,.64-2.3,3.74,3.74,0,0,0-.64-2.32,2.22,2.22,0,0,0-1.88-.83,2.26,2.26,0,0,0-1.89.83,3.76,3.76,0,0,0-.64,2.32A3.59,3.59,0,0,0,40.81,95.91Z"/><path class="cls-1" d="M59.14,97.9V89.29h3.18a9.29,9.29,0,0,1,1.13.06,3.9,3.9,0,0,1,.91.22,1.75,1.75,0,0,1,.69.42,1.85,1.85,0,0,1,.43.68,3.07,3.07,0,0,1,.15,1,2.17,2.17,0,0,1-1.55,2.25,6.45,6.45,0,0,1,.78,1.32l1.28,2.65H64.41l-1-2.24c-.37-.81-.61-1.28-.7-1.43h-2V97.9Zm3.32-4.83a2.11,2.11,0,0,0,1.31-.32,1.27,1.27,0,0,0,.4-1,1.08,1.08,0,0,0-.4-.93,2.08,2.08,0,0,0-1.24-.3H60.71v2.6h1.75Z"/><path class="cls-1" d="M79.81,97.9V90.59H77.3V89.32h6.59v1.27H81.4V97.9Z"/><path class="cls-1" d="M94.76,97.9l3.15-8.59h1.73l3.11,8.59h-1.63l-.85-2.42h-3l-.86,2.42Zm2.91-3.61h2.2c-.7-2.25-1.06-3.42-1.08-3.49Z"/><path class="cls-1" d="M114.46,97.9V89.32h1.59v7.32h3.59l0,1.26Z"/><path class="cls-1" d="M70.18,58.51C36.16,58.51,0,48.25,0,29.25S36.16,0,70.18,0s70.18,10.25,70.18,29.25S104.2,58.51,70.18,58.51Zm0-48.51C33.44,10,10,21.4,10,29.25S33.44,48.51,70.18,48.51s60.18-11.41,60.18-19.26S106.91,10,70.18,10Z"/><path class="cls-2" d="M114.05,38.15C119.67,36,123.11,33.72,125,32c-13.69-6.9-34.62-10.51-54.8-10.51S29.07,25.07,15.37,32c1.88,1.75,5.32,4,10.94,6.18,10.45-3.84,25.5-6.69,43.87-6.69S103.59,34.31,114.05,38.15Z"/><path class="cls-2" d="M130.06,49.15a4.69,4.69,0,0,1,.3,1.57c0,7.85-23.45,19.25-60.18,19.25S10,58.57,10,50.72a4.45,4.45,0,0,1,.3-1.57,37.26,37.26,0,0,1-8-6.33A15.12,15.12,0,0,0,0,50.72C0,69.72,36.16,80,70.18,80s70.18-10.25,70.18-29.25a15,15,0,0,0-2.3-7.9A37.19,37.19,0,0,1,130.06,49.15Z"/></g></svg>