<svg xmlns="http://www.w3.org/2000/svg" viewBox="0 0 600 600"><defs><style>.cls-1{fill:#0086e8;}.cls-2{fill:#98d2f2;}</style></defs><g id="Layer_2" data-name="Layer 2"><path class="cls-1" d="M300,318.52c-34,0-70.18-10.25-70.18-29.25S266,260,300,260s70.18,10.25,70.18,29.25S334,318.52,300,318.52Zm0-48.5c-36.74,0-60.18,11.4-60.18,19.25s23.44,19.25,60.18,19.25,60.18-11.4,60.18-19.25S336.74,270,300,270Z"/><path class="cls-2" d="M343.87,298.16c5.62-2.17,9.06-4.42,10.94-6.17-13.7-6.9-34.63-10.51-54.81-10.51s-41.11,3.61-54.81,10.51c1.88,1.75,5.32,4,10.94,6.17,10.46-3.83,25.5-6.68,43.87-6.68S333.41,294.33,343.87,298.16Z"/><path class="cls-2" d="M359.88,309.16a4.49,4.49,0,0,1,.3,1.57c0,7.85-23.44,19.25-60.18,19.25s-60.18-11.4-60.18-19.25a4.49,4.49,0,0,1,.3-1.57,37.23,37.23,0,0,1-8-6.32,15.06,15.06,0,0,0-2.29,7.89c0,19,36.16,29.25,70.18,29.25s70.18-10.25,70.18-29.25a15.06,15.06,0,0,0-2.29-7.89A37.23,37.23,0,0,1,359.88,309.16Z"/></g></svg>