<svg xmlns="http://www.w3.org/2000/svg" viewBox="0 0 140.36 79.84"><defs><style>.cls-1{fill:#0086e8;}.cls-2{fill:#98d2f2;}</style></defs><g id="Layer_2" data-name="Layer 2"><path class="cls-1" d="M70.18,58.51C36.16,58.51,0,48.25,0,29.25S36.16,0,70.18,0s70.18,10.25,70.18,29.25S104.2,58.51,70.18,58.51Zm0-48.51C33.44,10,10,21.4,10,29.25S33.44,48.51,70.18,48.51s60.18-11.41,60.18-19.26S106.91,10,70.18,10Z"/><path class="cls-2" d="M114.05,38.15C119.67,36,123.11,33.72,125,32c-13.69-6.9-34.62-10.51-54.8-10.51S29.07,25.07,15.37,32c1.88,1.75,5.32,4,10.94,6.18,10.45-3.84,25.5-6.69,43.87-6.69S103.59,34.31,114.05,38.15Z"/><path class="cls-2" d="M130.06,49.15a4.69,4.69,0,0,1,.3,1.57c0,7.85-23.45,19.25-60.18,19.25S10,58.57,10,50.72a4.45,4.45,0,0,1,.3-1.57,37.26,37.26,0,0,1-8-6.33A15.12,15.12,0,0,0,0,50.72C0,69.72,36.16,80,70.18,80s70.18-10.25,70.18-29.25a15,15,0,0,0-2.3-7.9A37.19,37.19,0,0,1,130.06,49.15Z"/></g></svg>