<svg xmlns="http://www.w3.org/2000/svg" viewBox="0 0 600 600"><defs><style>.cls-1{fill:#fff;}.cls-2{fill:#959595;}</style></defs><g id="Layer_2" data-name="Layer 2"><path class="cls-1" d="M250.54,357.92v-8.61h2.86a5.21,5.21,0,0,1,1.73.26,2.33,2.33,0,0,1,1.14.85,2.46,2.46,0,0,1,.42,1.47,3.33,3.33,0,0,1-.16,1.09,2.22,2.22,0,0,1-1.54,1.47,5.28,5.28,0,0,1-1.59.21c-.53,0-1,0-1.3-.05v3.31Zm2.69-4.41a3.49,3.49,0,0,0,.84-.09,2.22,2.22,0,0,0,.57-.24,1.14,1.14,0,0,0,.32-.37,1.45,1.45,0,0,0,.16-.42,2.89,2.89,0,0,0,0-.45,1.33,1.33,0,0,0-.46-1.08,2.06,2.06,0,0,0-1.29-.37H252.1v3Z"/><path class="cls-1" d="M272.51,358a4,4,0,0,1-3.06-1.17,4.52,4.52,0,0,1-1.12-3.25,4.46,4.46,0,0,1,1.12-3.24,4.6,4.6,0,0,1,6.13,0,4.53,4.53,0,0,1,1.12,3.25,4.47,4.47,0,0,1-1.13,3.23A4,4,0,0,1,272.51,358Zm-1.88-2.11a2.28,2.28,0,0,0,1.89.82,2.22,2.22,0,0,0,1.88-.82,3.59,3.59,0,0,0,.64-2.29,3.71,3.71,0,0,0-.64-2.33,2.57,2.57,0,0,0-3.77,0,3.74,3.74,0,0,0-.64,2.32A3.67,3.67,0,0,0,270.63,355.93Z"/><path class="cls-1" d="M289,357.92v-8.61h3.18a9.17,9.17,0,0,1,1.13.06,4.47,4.47,0,0,1,.91.21,2.17,2.17,0,0,1,.7.42,2.12,2.12,0,0,1,.42.69,3,3,0,0,1,.15,1,2.15,2.15,0,0,1-1.55,2.25,6.31,6.31,0,0,1,.78,1.33l1.28,2.65h-1.73l-1-2.25c-.38-.8-.62-1.28-.71-1.43h-2v3.69Zm3.32-4.83a2,2,0,0,0,1.31-.33,1.24,1.24,0,0,0,.4-1,1.08,1.08,0,0,0-.4-.93,2.08,2.08,0,0,0-1.24-.3h-1.82v2.59h1.75Z"/><path class="cls-1" d="M309.63,357.92V350.6h-2.5v-1.27h6.58v1.27h-2.49v7.32Z"/><path class="cls-1" d="M324.58,357.92l3.15-8.59h1.73l3.11,8.59H331l-.85-2.43h-3l-.86,2.43Zm2.91-3.61h2.2l-1.08-3.49Z"/><path class="cls-1" d="M344.28,357.92v-8.59h1.59v7.32h3.59l0,1.27Z"/><path class="cls-1" d="M300,318.52c-34,0-70.18-10.25-70.18-29.25S266,260,300,260s70.18,10.25,70.18,29.25S334,318.52,300,318.52Zm0-48.5c-36.74,0-60.18,11.4-60.18,19.25s23.44,19.25,60.18,19.25,60.18-11.4,60.18-19.25S336.74,270,300,270Z"/><path class="cls-2" d="M343.87,298.16c5.62-2.17,9.06-4.42,10.94-6.17-13.7-6.9-34.63-10.51-54.81-10.51s-41.11,3.61-54.81,10.51c1.88,1.75,5.32,4,10.94,6.17,10.46-3.83,25.5-6.68,43.87-6.68S333.41,294.33,343.87,298.16Z"/><path class="cls-2" d="M359.88,309.16a4.49,4.49,0,0,1,.3,1.57c0,7.85-23.44,19.25-60.18,19.25s-60.18-11.4-60.18-19.25a4.49,4.49,0,0,1,.3-1.57,37.23,37.23,0,0,1-8-6.32,15.06,15.06,0,0,0-2.29,7.89c0,19,36.16,29.25,70.18,29.25s70.18-10.25,70.18-29.25a15.06,15.06,0,0,0-2.29-7.89A37.23,37.23,0,0,1,359.88,309.16Z"/></g></svg>